<?xml version="1.0" encoding="UTF-8"?>
<svg xmlns="http://www.w3.org/2000/svg" version="1.1" viewBox="0 0 752.31 123.87">
  <defs>
    <style>
      .cls-1 {
        fill: #fff;
      }
    </style>
  </defs>
  <!-- Generator: Adobe Illustrator 28.6.0, SVG Export Plug-In . SVG Version: 1.2.0 Build 709)  -->
  <g>
    <g id="Layer_1">
      <g>
        <path class="cls-1" d="M299.81,54.77c0,11.36-7.25,19.3-22.49,19.3h-12.42c.85-.09,1.69-.47,2.35-1.23.85-1.04,1.51-1.8,1.51-17.51v-1.04c0-15.71-.66-16.46-1.51-17.51-.56-.76-1.32-1.14-2.16-1.23h12.23c15.25,0,22.49,7.85,22.49,19.21ZM295.85,54.77c0-12.96-7.62-18.74-18.54-18.74h-3.2c-.47,0-1.41,0-1.98.47-.47.57-.47,2.08-.47,17.79v1.04c0,15.71,0,16.75.56,17.41.56.76,3.67.85,4.71.85h.38c10.92,0,18.54-5.77,18.54-18.83Z"/>
        <path class="cls-1" d="M304.14,46.54c2.73-.09,5.27-1.04,6.12-1.51v5.58c1.51-3.97,5.65-5.58,8.75-5.58,1.79,0,3.95.47,5.08.85v7c-1.22-4.45-3.39-6.91-6.21-6.91-2.54,0-7.43,1.42-7.62,7.85v1.51c0,15.71.56,16.46,1.51,17.51.56.76,1.41,1.14,2.35,1.23h-10.16c.85-.09,1.69-.47,2.35-1.23.75-.85,1.41-1.61,1.6-12.3-.19-9.84-.85-11.83-1.6-12.77-.56-.76-1.32-1.14-2.16-1.23Z"/>
        <path class="cls-1" d="M350.16,56.76h.09v-1.04c0-7.19-2.16-9.84-6.96-9.84s-10.35,3.78-12.05,9.65v-6.06c3.29-2.65,8-4.07,12.71-4.07,5.93,0,8.75,2.46,8.75,10.41v3.97c0,10.5.66,12.02,1.51,13.06.56.76,1.41,1.14,2.35,1.23h-4.05c-1.03,0-2.26-.47-2.26-2.84v-4.73c-1.32,4.73-5.36,7.57-10.92,7.57-6.02,0-9.41-2.46-9.41-6.72,0-5.3,5.74-8.71,20.23-10.6ZM350.25,57.32h-.09c-11.01,1.42-17.22,4.83-17.22,9.84,0,3.6,1.88,6.43,6.96,6.43,5.55,0,10.07-4.16,10.35-10.22v-6.06Z"/>
        <path class="cls-1" d="M363.71,74.07c-1.41,0-2.45-1.14-2.45-2.46,0-1.42,1.04-2.46,2.45-2.46,1.32,0,2.45,1.04,2.45,2.46,0,1.32-1.13,2.46-2.45,2.46Z"/>
        <path class="cls-1" d="M429.31,74.07h-10.63c.85-.09,1.69-.47,2.35-1.23.75-.95.75-2.27-4.89-15.52-3.76-.47-7.62-.19-11.11.85-4.71,1.51-8.09,4.26-10.35,7.95-1.98,5.11-1.79,6.06-1.22,6.72.56.76,1.41,1.14,2.35,1.23h-8.28c.85-.09,1.51-.28,2.45-1.23,1.22-1.23,2.45-3.5,8.56-17.88,0,0,5.27-12.3,8.19-19.4h3.67c.94,2.55,2.45,6.34,4.42,10.98l3.48,8.42c6.21,14.38,7.81,16.84,8.66,17.88.56.76,1.41,1.14,2.35,1.23ZM415.85,56.76l-.28-.66-3.48-8.42c-1.04-2.56-3.2-7.48-4.89-11.17-2.82,6.34-8.38,19.59-8.38,19.59l-3.39,8.04c2.26-3.03,5.36-5.2,9.41-6.43,3.39-1.04,7.34-1.32,11.01-.95Z"/>
        <path class="cls-1" d="M452.37,36.79c-.66-.76-1.32-1.14-2.16-1.23,2.64-.09,5.46-1.04,6.21-1.99l-.09,21.67v4.45c0,10.5.75,12.11,1.6,13.15.56.76,1.41,1.14,2.35,1.23h-3.95c-1.13,0-2.35-.47-2.35-2.84v-5.68c-1.41,4.83-5.74,8.52-10.16,8.52-6.31,0-12.8-4.54-12.8-14.29s7.25-14.38,13.55-14.38c5.27,0,8.75,4.07,9.41,9.94v-1.04c0-15.71-.75-16.46-1.6-17.51ZM453.97,59.69v-.66c-.28-8.33-4.42-13.15-9.41-13.15s-10.45,5.11-10.45,13.91,4.42,13.81,9.69,13.81c6.68,0,9.98-6.81,10.16-10.98v-2.93Z"/>
        <path class="cls-1" d="M464.98,46.54c2.73-.09,5.27-1.04,6.12-1.51v5.58c1.51-3.97,5.65-5.58,8.75-5.58,1.79,0,3.95.47,5.08.85v7c-1.22-4.45-3.39-6.91-6.21-6.91-2.54,0-7.43,1.42-7.62,7.85v1.51c0,15.71.56,16.46,1.51,17.51.56.76,1.41,1.14,2.35,1.23h-10.16c.85-.09,1.69-.47,2.35-1.23.75-.85,1.41-1.61,1.6-12.3-.19-9.84-.85-11.83-1.6-12.77-.56-.76-1.32-1.14-2.16-1.23Z"/>
        <path class="cls-1" d="M489.45,46.54c2.64,0,5.36-.47,6.21-.95l-.09,9.75c0,15.71.66,16.46,1.41,17.51.56.76,1.41,1.14,2.35,1.23h-9.88c.75-.09,1.6-.47,2.26-1.23,1.04-1.23,1.51-2.08,1.6-12.3-.09-9.94-.56-11.73-1.51-12.77-.66-.66-1.6-1.14-2.35-1.23ZM493.49,41.05c-1.32,0-2.45-1.14-2.45-2.46s1.13-2.37,2.45-2.37,2.45,1.04,2.45,2.37-1.13,2.46-2.45,2.46Z"/>
        <path class="cls-1" d="M525.4,56.76h.09v-1.04c0-7.19-2.16-9.84-6.96-9.84s-10.35,3.78-12.05,9.65v-6.06c3.29-2.65,8-4.07,12.71-4.07,5.93,0,8.75,2.46,8.75,10.41v3.97c0,10.5.66,12.02,1.51,13.06.56.76,1.41,1.14,2.35,1.23h-4.05c-1.03,0-2.26-.47-2.26-2.84v-4.73c-1.32,4.73-5.36,7.57-10.92,7.57-6.02,0-9.41-2.46-9.41-6.72,0-5.3,5.74-8.71,20.23-10.6ZM525.49,57.32h-.09c-11.01,1.42-17.22,4.83-17.22,9.84,0,3.6,1.88,6.43,6.96,6.43,5.55,0,10.07-4.16,10.35-10.22v-6.06Z"/>
        <path class="cls-1" d="M542.06,59.41c.09,11.73.75,12.49,1.51,13.44.56.76,1.41,1.14,2.35,1.23h-10.16c.85-.09,1.69-.47,2.35-1.23.75-.85,1.41-1.61,1.6-12.3-.19-9.84-.85-11.83-1.6-12.77-.56-.76-1.32-1.14-2.16-1.23,2.73-.09,5.27-1.04,6.12-1.51v10.79c1.51-6.91,6.96-10.41,12.71-10.41,6.59,0,9.6,4.07,9.6,13.82,0,11.07.66,12.58,1.41,13.63.66.76,1.51,1.14,2.35,1.23h-10.07c.85-.09,1.69-.47,2.35-1.23.85-1.04,1.51-2.46,1.51-13.63,0-8.89-2.35-13.34-7.91-13.34s-11.67,4.92-11.95,13.53Z"/>
        <path class="cls-1" d="M593.83,56.76h.09v-1.04c0-7.19-2.16-9.84-6.96-9.84s-10.35,3.78-12.05,9.65v-6.06c3.29-2.65,8-4.07,12.71-4.07,5.93,0,8.75,2.46,8.75,10.41v3.97c0,10.5.66,12.02,1.51,13.06.56.76,1.41,1.14,2.35,1.23h-4.05c-1.03,0-2.26-.47-2.26-2.84v-4.73c-1.32,4.73-5.36,7.57-10.92,7.57-6.02,0-9.41-2.46-9.41-6.72,0-5.3,5.74-8.71,20.23-10.6ZM593.92,57.32h-.09c-11.01,1.42-17.22,4.83-17.22,9.84,0,3.6,1.88,6.43,6.96,6.43,5.55,0,10.07-4.16,10.35-10.22v-6.06Z"/>
        <path class="cls-1" d="M630.25,59.88c.09,11.26.75,12.02,1.51,12.96.56.76,1.41,1.14,2.35,1.23h-10.63c.85-.09,1.69-.47,2.35-1.23.85-1.04,1.51-1.8,1.51-17.51v-1.04c0-15.71-.66-16.46-1.51-17.51-.56-.76-1.32-1.14-2.16-1.23h10.63c13.93,0,19.95,4.83,19.95,12.21s-5.84,12.3-19.76,12.3c-1.88,0-4.24-.19-4.24-.19ZM634.48,59.5c11.01,0,15.81-4.54,15.81-11.73s-4.99-11.73-16-11.73h-1.6c-.47,0-1.41,0-1.98.47-.47.57-.47,3.5-.47,12.4v10.22c.47.28,2.92.38,4.24.38Z"/>
        <path class="cls-1" d="M686.06,65.27l.66.28c-1.41,3.78-5.65,8.52-13.36,8.52-8.75,0-14.21-6.15-14.21-14.29s5.83-14.38,14.02-14.38,13.93,6.15,13.93,14.38h-24.85c0,8.23,3.67,13.81,11.11,13.81s11.29-4.64,12.71-8.33ZM662.25,59.22h21.83c-.19-7.95-4.33-13.34-10.92-13.34s-10.73,5.39-10.92,13.34Z"/>
        <path class="cls-1" d="M693.78,53.07v-7.19h22.87c-1.32,1.61-2.82,3.69-4.71,6.15l-16.56,21.57h15.15c2.82,0,4.89-2.18,6.21-6.62v7.1h-24.75l17.98-23.47,3.2-4.16h-13.18c-2.82,0-4.89,2.18-6.21,6.62Z"/>
        <path class="cls-1" d="M751.28,59.78c0,8.14-6.12,14.29-14.31,14.29s-14.21-6.15-14.21-14.29,6.12-14.38,14.21-14.38,14.31,6.15,14.31,14.38ZM748.27,59.78c0-8.23-4.33-13.91-11.29-13.91s-11.11,5.68-11.11,13.91,4.42,13.81,11.11,13.81,11.29-5.58,11.29-13.81Z"/>
        <path class="cls-1" d="M137.7,123.87h-35.04c2.79-.3,5.58-1.52,7.75-3.96,2.48-3.04,2.48-7.3-16.13-49.91-12.41-1.52-25.12-.61-36.6,2.74-15.51,4.87-26.67,13.7-34.11,25.57-6.51,16.43-5.89,19.48-4.03,21.61,1.86,2.43,4.65,3.65,7.75,3.96H0c2.79-.3,4.96-.91,8.06-3.96,4.03-3.96,8.06-11.26,28.22-57.52,0,0,17.37-39.57,26.98-62.39h12.1c3.1,8.22,8.06,20.39,14.58,35.3l11.47,27.09c20.47,46.26,25.74,54.17,28.53,57.52,1.86,2.43,4.65,3.65,7.75,3.96ZM93.35,68.17l-.93-2.13-11.47-27.09c-3.41-8.22-10.54-24.04-16.13-35.91-9.3,20.39-27.6,63-27.6,63l-11.16,25.87c7.44-9.74,17.68-16.74,31.01-20.7,11.16-3.35,24.19-4.26,36.29-3.04Z"/>
        <path class="cls-1" d="M151.96,78.22c.31,36.22,2.48,38.65,4.96,41.7,1.86,2.43,4.65,3.65,7.75,3.96h-35.04c2.79-.3,5.58-1.52,7.75-3.96,2.79-3.35,4.96-5.78,4.96-56.3v-3.35c0-50.52-2.17-52.96-4.96-56.3-1.86-2.43-4.34-3.65-7.13-3.96h35.04c45.9,0,65.75,15.52,65.75,39.26s-19.23,39.57-65.13,39.57c-6.2,0-13.96-.61-13.96-.61ZM165.92,77c36.29,0,52.1-14.61,52.1-37.74S201.58,1.52,165.3,1.52h-5.27c-1.55,0-4.65,0-6.51,1.52-1.55,1.83-1.55,11.26-1.55,39.87v32.87c1.55.91,9.61,1.22,13.96,1.22Z"/>
        <path class="cls-1" d="M276.94,112.07v-5.12c0-2.29.03-4.78.09-6.21h-.08c-.59,2.47-2.16,7.25-3.48,11.33h-2.09c-1.01-3.49-2.63-8.89-3.2-11.37h-.08c.11,1.52.16,4.28.16,6.51v4.85h-2.23v-13.04h3.62c1.17,3.63,2.53,8.22,2.93,10.07h.02c.31-1.56,1.98-6.52,3.21-10.07h3.49v13.04h-2.35ZM292.12,106.29h-6.28v3.76h6.91l-.29,2.03h-8.98v-13.04h8.92v2.03h-6.56v3.2h6.28v2.03ZM292.15,95.22l-3.28,2.61h-2.24l2.63-2.61h2.88ZM295.82,99.03h4.96c3.73,0,6.19,2.5,6.19,6.37s-2.39,6.67-6.29,6.67h-4.86v-13.04ZM298.25,110.07h2.31c2.68,0,3.89-1.98,3.89-4.66,0-2.28-1.13-4.38-3.88-4.38h-2.32v9.04ZM312.87,112.07h-2.43v-13.04h2.43v13.04ZM327.73,108.16c-.54,2.36-2.3,4.09-5.44,4.09-4.03,0-5.97-2.94-5.97-6.64s1.99-6.77,6.08-6.77c3.31,0,4.98,1.94,5.32,4.12h-2.43c-.34-1.15-1.11-2.17-2.97-2.17-2.5,0-3.48,2.27-3.48,4.73,0,2.33.89,4.78,3.56,4.78,1.88,0,2.56-1.2,2.89-2.14h2.44ZM342.8,105.5c0,3.61-2.11,6.76-6.27,6.76s-6.1-2.97-6.1-6.71,2.29-6.71,6.27-6.71c3.74,0,6.1,2.7,6.1,6.65M332.94,105.5c0,2.64,1.22,4.75,3.68,4.75,2.67,0,3.66-2.24,3.66-4.72s-1.12-4.67-3.68-4.67-3.65,2.02-3.65,4.64M357.01,99.03c2.67,0,4.49,1.51,4.49,3.95,0,2.73-2.02,4.05-4.57,4.05h-2.69v5.04h-2.43v-13.04h5.21ZM354.24,105.06h2.43c1.46,0,2.37-.63,2.37-2.02s-1-2.03-2.3-2.03h-2.49v4.06ZM366.3,108.32c.31,1.4,1.29,2.06,2.92,2.06s2.37-.72,2.37-1.77c0-1.15-.63-1.7-2.97-2.26-3.36-.8-4.3-2.01-4.3-3.8,0-2.16,1.6-3.71,4.6-3.71,3.32,0,4.65,1.84,4.83,3.68h-2.45c-.17-.93-.71-1.82-2.45-1.82-1.29,0-2.04.56-2.04,1.59s.61,1.42,2.76,1.93c3.74.9,4.51,2.32,4.51,4.1,0,2.29-1.71,3.92-5.04,3.92s-4.89-1.69-5.19-3.93h2.45ZM379.68,112.07h-2.43v-13.04h2.43v13.04ZM395.51,105.5c0,2.07-.69,3.99-2.07,5.25l2.99,2.09-1.42,1.65-3.62-2.54c-.64.21-1.36.32-2.15.32-3.98,0-6.1-2.97-6.1-6.71s2.29-6.71,6.27-6.71c3.74,0,6.1,2.7,6.1,6.65M385.65,105.5c0,2.64,1.22,4.75,3.68,4.75,2.67,0,3.66-2.24,3.66-4.72s-1.12-4.67-3.68-4.67-3.65,2.02-3.65,4.64M401.33,99.03v7.8c0,2.7,1.41,3.47,2.9,3.47,1.72,0,2.85-.88,2.85-3.47v-7.8h2.43v7.67c0,4.38-2.5,5.54-5.32,5.54s-5.3-1.23-5.3-5.47v-7.75h2.44ZM415.98,112.07h-2.43v-13.04h2.43v13.04ZM422.33,108.75l-1.14,3.32h-2.39l4.47-13.04h3.04l4.66,13.04h-2.56l-1.19-3.32h-4.88ZM426.66,106.73c-1.03-2.98-1.64-4.76-1.95-5.87h-.02c-.32,1.22-1,3.32-1.83,5.87h3.79ZM434.86,101.06h-4.02v-2.03h10.46v2.03h-4.01v11.01h-2.43v-11.01ZM446.4,106.67v5.4h-2.38v-13.04h5.47c2.77,0,4.25,1.53,4.25,3.55,0,1.73-.95,2.71-1.99,3.08.78.25,1.73.97,1.73,3.28v.61c0,.88,0,1.93.18,2.52h-2.32c-.23-.57-.25-1.56-.25-2.88v-.22c0-1.57-.41-2.29-2.58-2.29h-2.12ZM446.4,104.7h2.51c1.69,0,2.37-.64,2.37-1.86s-.76-1.83-2.26-1.83h-2.62v3.69ZM459.72,108.75l-1.14,3.32h-2.39l4.47-13.04h3.04l4.66,13.04h-2.56l-1.19-3.32h-4.88ZM464.05,106.73c-1.03-2.98-1.64-4.76-1.95-5.87h-.02c-.32,1.22-1,3.32-1.83,5.87h3.79ZM476.69,99.03h4.96c3.73,0,6.19,2.5,6.19,6.37s-2.39,6.67-6.29,6.67h-4.86v-13.04ZM479.12,110.07h2.31c2.68,0,3.89-1.98,3.89-4.66,0-2.28-1.13-4.38-3.88-4.38h-2.32v9.04ZM499.95,106.29h-6.28v3.76h6.91l-.29,2.03h-8.98v-13.04h8.92v2.03h-6.56v3.2h6.28v2.03ZM509.23,112.07v-13.04h3.06c1.7,2.97,5.05,8.66,5.69,10.08h.03c-.14-1.47-.13-3.66-.13-5.8v-4.29h2.22v13.04h-2.89c-1.5-2.64-5.12-9.02-5.82-10.51h-.03c.09,1.26.11,3.78.11,6.12v4.4h-2.24ZM526.71,112.07h-2.43v-13.04h2.43v13.04ZM530.89,112.07v-13.04h3.06c1.7,2.97,5.05,8.66,5.69,10.08h.03c-.14-1.47-.13-3.66-.13-5.8v-4.29h2.22v13.04h-2.89c-1.5-2.64-5.12-9.02-5.82-10.51h-.03c.09,1.26.11,3.78.11,6.12v4.4h-2.24ZM532.98,97.75v-.58c0-1.48.69-1.95,1.74-1.95,1.22,0,2.27.9,2.91.9.31,0,.52-.15.52-.71v-.18h1.51v.44c0,1.67-.68,2.17-1.78,2.17s-2.21-.9-2.87-.9c-.29,0-.48.14-.48.52v.29h-1.55ZM557.59,105.5c0,3.61-2.11,6.76-6.27,6.76s-6.1-2.97-6.1-6.71,2.29-6.71,6.27-6.71c3.74,0,6.1,2.7,6.1,6.65M547.74,105.5c0,2.64,1.22,4.75,3.68,4.75,2.67,0,3.66-2.24,3.66-4.72s-1.12-4.67-3.68-4.67-3.65,2.02-3.65,4.64M562.56,108.32c.31,1.4,1.29,2.06,2.92,2.06s2.37-.72,2.37-1.77c0-1.15-.63-1.7-2.97-2.26-3.36-.8-4.3-2.01-4.3-3.8,0-2.16,1.6-3.71,4.6-3.71,3.32,0,4.65,1.84,4.83,3.68h-2.45c-.17-.93-.71-1.82-2.45-1.82-1.29,0-2.04.56-2.04,1.59s.61,1.42,2.76,1.93c3.74.9,4.51,2.32,4.51,4.1,0,2.29-1.71,3.92-5.04,3.92s-4.89-1.69-5.19-3.93h2.45ZM582.06,112.07v-4.67c0-.14-.02-.27-.1-.39l-4.5-7.98h2.75c1.06,2.02,2.56,4.89,3.19,6.22.56-1.28,2.16-4.25,3.22-6.22h2.55l-4.58,7.96c-.05.09-.1.15-.1.39v4.69h-2.43ZM599.32,108.75l-1.14,3.32h-2.39l4.47-13.04h3.04l4.66,13.04h-2.56l-1.19-3.32h-4.88ZM603.65,106.73c-1.03-2.98-1.65-4.76-1.95-5.87h-.02c-.32,1.22-1,3.32-1.83,5.87h3.79ZM610.67,99.03h4.96c3.73,0,6.19,2.5,6.19,6.37s-2.39,6.67-6.29,6.67h-4.86v-13.04ZM613.1,110.07h2.31c2.68,0,3.89-1.98,3.89-4.66,0-2.28-1.13-4.38-3.88-4.38h-2.32v9.04ZM637,105.5c0,3.61-2.11,6.76-6.27,6.76s-6.1-2.97-6.1-6.71,2.29-6.71,6.27-6.71c3.74,0,6.1,2.7,6.1,6.65M627.14,105.5c0,2.64,1.22,4.75,3.68,4.75,2.67,0,3.66-2.24,3.66-4.72s-1.12-4.67-3.68-4.67-3.65,2.02-3.65,4.64M640.46,99.03h2.43v11.01h6.55l-.29,2.03h-8.69v-13.04ZM660.76,106.29h-6.28v3.76h6.91l-.29,2.03h-8.98v-13.04h8.92v2.03h-6.56v3.2h6.28v2.03ZM666.17,108.32c.31,1.4,1.29,2.06,2.92,2.06s2.37-.72,2.37-1.77c0-1.15-.63-1.7-2.97-2.26-3.36-.8-4.3-2.01-4.3-3.8,0-2.16,1.6-3.71,4.6-3.71,3.32,0,4.65,1.84,4.83,3.68h-2.45c-.17-.93-.7-1.82-2.45-1.82-1.29,0-2.04.56-2.04,1.59s.61,1.42,2.76,1.93c3.74.9,4.51,2.32,4.51,4.1,0,2.29-1.71,3.92-5.04,3.92s-4.89-1.69-5.19-3.93h2.45ZM688.01,108.16c-.54,2.36-2.3,4.09-5.44,4.09-4.03,0-5.97-2.94-5.97-6.64s1.99-6.77,6.08-6.77c3.31,0,4.98,1.94,5.32,4.12h-2.43c-.34-1.15-1.11-2.17-2.97-2.17-2.5,0-3.48,2.27-3.48,4.73,0,2.33.89,4.78,3.56,4.78,1.89,0,2.56-1.2,2.89-2.14h2.44ZM699.86,106.29h-6.28v3.76h6.91l-.29,2.03h-8.98v-13.04h8.92v2.03h-6.56v3.2h6.28v2.03ZM703.56,112.07v-13.04h3.06c1.7,2.97,5.05,8.66,5.69,10.08h.03c-.14-1.47-.13-3.66-.13-5.8v-4.29h2.22v13.04h-2.89c-1.5-2.64-5.12-9.02-5.82-10.51h-.03c.09,1.26.11,3.78.11,6.12v4.4h-2.24ZM721.32,101.06h-4.02v-2.03h10.46v2.03h-4.01v11.01h-2.43v-11.01ZM739.12,106.29h-6.28v3.76h6.91l-.29,2.03h-8.98v-13.04h8.92v2.03h-6.56v3.2h6.28v2.03ZM744.53,108.32c.31,1.4,1.29,2.06,2.92,2.06s2.37-.72,2.37-1.77c0-1.15-.63-1.7-2.97-2.26-3.36-.8-4.3-2.01-4.3-3.8,0-2.16,1.59-3.71,4.6-3.71,3.32,0,4.65,1.84,4.83,3.68h-2.45c-.17-.93-.7-1.82-2.45-1.82-1.29,0-2.04.56-2.04,1.59s.61,1.42,2.76,1.93c3.74.9,4.51,2.32,4.51,4.1,0,2.29-1.71,3.92-5.04,3.92s-4.89-1.69-5.19-3.93h2.45Z"/>
      </g>
    </g>
  </g>
</svg>