<svg width="32" height="32" viewBox="0 0 32 32" fill="none" xmlns="http://www.w3.org/2000/svg">
<path d="M25.8616 14.4889C26.484 13.889 27.4931 13.889 28.1155 14.4889C28.7378 15.0887 28.7378 16.0614 28.1155 16.6611L26.6128 18.1094M25.8616 14.4889L27.3642 13.0407C27.9866 12.4409 27.9866 11.4683 27.3642 10.8684C26.7418 10.2686 25.7327 10.2686 25.1103 10.8684L23.9836 11.9547M25.8616 14.4889L21.7296 18.4714M26.6128 18.1094C27.2352 17.5095 28.2443 17.5095 28.8667 18.1094C29.4891 18.7093 29.4891 19.6818 28.8667 20.2817L24.2338 24.747C22.601 26.3207 21.7846 27.1077 20.8859 27.4943C20.3646 27.7187 19.5031 27.8153 18.8514 27.8569C18.2876 27.8927 17.745 28.1047 17.3455 28.4898L16.4706 29.333M26.6128 18.1094L23.2322 21.3678M23.9836 11.9547C24.6055 11.3548 24.6054 10.3826 23.9831 9.7829C23.3607 9.18304 22.3516 9.18304 21.7294 9.7829L15.372 15.9099L15.3759 13.5597C15.3775 12.5285 14.4488 11.7277 13.3854 11.8432C12.5716 11.9315 11.9212 12.5392 11.8041 13.3204L11.054 19.2565C10.9105 20.3922 10.1729 21.6451 9.3335 22.4541M23.9836 11.9547L20.2272 15.5753" stroke="#1E7B82" stroke-width="2" stroke-linecap="round" stroke-linejoin="round"/>
<path d="M17.9789 5.4635C18.6288 4.8236 18.6286 3.78656 17.9784 3.14688C17.3278 2.50703 16.2733 2.50703 15.6228 3.14688L8.97754 9.68652L8.98265 7.17547C8.9844 6.07555 8.01384 5.22132 6.90232 5.3445C6.05182 5.43875 5.37209 6.0869 5.24976 6.92024L4.46465 13.2562C4.31465 14.4677 3.54377 15.8041 2.6665 16.667M17.9789 5.4635L19.1565 4.30478C19.8069 3.66492 20.8616 3.66492 21.512 4.30478C21.8373 4.62475 21.9998 5.04412 21.9998 5.4635M17.9789 5.4635L14.6665 8.72182" stroke="#1E7B82" stroke-width="2" stroke-linecap="round" stroke-linejoin="round"/>
</svg>
