<svg width="32" height="32" viewBox="0 0 32 32" fill="none" xmlns="http://www.w3.org/2000/svg">
<path d="M2.6665 14.667C5.77544 11.4108 10.1908 11.2574 13.3332 14.667M11.3266 6.00033C11.3266 7.84127 9.83212 9.33366 7.98854 9.33366C6.14497 9.33366 4.65046 7.84127 4.65046 6.00033C4.65046 4.15938 6.14497 2.66699 7.98854 2.66699C9.83212 2.66699 11.3266 4.15938 11.3266 6.00033Z" stroke="#1E7B82" stroke-width="2" stroke-linecap="round"/>
<path d="M18.6665 29.333C21.7754 26.0767 26.1908 25.9234 29.3332 29.333M27.3266 20.6663C27.3266 22.5073 25.8321 23.9997 23.9885 23.9997C22.145 23.9997 20.6505 22.5073 20.6505 20.6663C20.6505 18.8254 22.145 17.333 23.9885 17.333C25.8321 17.333 27.3266 18.8254 27.3266 20.6663Z" stroke="#1E7B82" stroke-width="2" stroke-linecap="round"/>
<path d="M4 18.667C4 23.827 8.17333 28.0003 13.3333 28.0003L12 25.3337" stroke="#1E7B82" stroke-width="2" stroke-linecap="round" stroke-linejoin="round"/>
<path d="M20 4H28M20 8H28M20 12H24.6667" stroke="#1E7B82" stroke-width="2" stroke-linecap="round" stroke-linejoin="round"/>
</svg>
