<svg width="32" height="32" viewBox="0 0 32 32" fill="none" xmlns="http://www.w3.org/2000/svg">
<path d="M10.0002 4.66699C7.92577 4.72922 6.68898 4.96011 5.83319 5.81669C4.66162 6.98935 4.66162 8.87673 4.66162 12.6515V21.3262C4.66162 25.101 4.66162 26.9883 5.83319 28.161C7.00477 29.3337 8.89039 29.3337 12.6616 29.3337H19.3283C23.0995 29.3337 24.9851 29.3337 26.1567 28.161C27.3283 26.9883 27.3283 25.101 27.3283 21.3262V12.6515C27.3283 8.87673 27.3283 6.98935 26.1567 5.8167C25.301 4.96011 24.0642 4.72922 21.9898 4.66699" stroke="#1E7B82" stroke-width="2"/>
<path d="M9.99463 5.00033C9.99463 3.71166 11.0393 2.66699 12.328 2.66699H19.6613C20.95 2.66699 21.9946 3.71166 21.9946 5.00033C21.9946 6.28899 20.95 7.33366 19.6613 7.33366H12.328C11.0393 7.33366 9.99463 6.28899 9.99463 5.00033Z" stroke="#1E7B82" stroke-width="2" stroke-linejoin="round"/>
<path d="M8.6665 13.333H13.9998" stroke="#1E7B82" stroke-width="2" stroke-linecap="round"/>
<path d="M18 14.6667C18 14.6667 18.6667 14.6667 19.3333 16C19.3333 16 21.4509 12.6667 23.3333 12" stroke="#1E7B82" stroke-width="2" stroke-linecap="round" stroke-linejoin="round"/>
<path d="M8.6665 21.333H13.9998" stroke="#1E7B82" stroke-width="2" stroke-linecap="round"/>
<path d="M18 22.6667C18 22.6667 18.6667 22.6667 19.3333 24C19.3333 24 21.4509 20.6667 23.3333 20" stroke="#1E7B82" stroke-width="2" stroke-linecap="round" stroke-linejoin="round"/>
</svg>
